<svg xmlns="http://www.w3.org/2000/svg" fill="#fff" fill-opacity="0.9" viewBox="0 0 15.2 16"><path d="M7.6 0c1.15 0 2.08.41 2.08.92 0 .1-.03.19-.1.27-1.16.96-3.46.7-4-.08v.03a.45.45 0 0 1-.06-.22V.9C5.53.4 6.46 0 7.6 0zM5.6 1.23l.02.96c.75.89 3.06 1.05 4.1-.02l-.03-.92 1.23.72.34-.01c1.15 0 2.08.4 2.08.92 0 .12-.05.23-.15.34-1.19.9-3.42.63-3.95-.13l.02 1.08c.75.89 3.06 1.05 4.1-.02l-.02-.76 1.6.93-7.4 4.24L.17 4.3l1.7-.96.02.78c.75.9 3.06 1.06 4.1-.01l-.04-1.05c-1.13 1.04-3.5.78-4.08 0a.42.42 0 0 1-.05-.2v-.01c.01-.5.94-.91 2.08-.91.14 0 .28 0 .41.02zm-.1 3.96l.03 1.08c.75.89 3.06 1.05 4.1-.02L9.58 5.2c-1.15 1.05-3.54.78-4.1-.01zm9.66.48L8.28 9.75v6.2l6.91-3.88zM0 5.52L6.92 9.8V16L0 12.12z"/></svg>
